 <svg  version="1.0" xmlns="http://www.w3.org/2000/svg"  width="2553.000000pt" height="2553.000000pt" viewBox="0 0 2553.000000 2553.000000"  preserveAspectRatio="xMidYMid meet">  <g transform="translate(0.000000,2553.000000) scale(0.100000,-0.100000)" fill="#000000" stroke="none"> <path d="M4236 25474 c-14 -13 -16 -66 -16 -420 l0 -404 -824 0 c-736 0 -826 -2 -840 -16 -14 -13 -16 -66 -16 -420 l0 -404 -408 0 c-304 0 -411 -3 -420 -12 -9 -9 -12 -116 -12 -420 l0 -408 -404 0 c-354 0 -407 -2 -420 -16 -14 -14 -16 -104 -16 -840 l0 -824 -404 0 c-354 0 -407 -2 -420 -16 -14 -14 -16 -294 -16 -2933 0 -2426 2 -2920 13 -2930 10 -7 140 -12 418 -13 l404 -3 3 -404 c1 -276 6 -408 13 -418 9 -10 95 -13 418 -15 l406 -3 3 -824 c1 -585 5 -828 13 -837 9 -11 94 -14 418 -16 l406 -3 3 -404 c1 -278 6 -408 13 -418 16 -18 8368 -20 8387 -1 9 9 12 113 12 408 0 295 3 399 12 408 9 9 113 12 408 12 295 0 399 3 408 12 9 9 12 207 12 828 0 621 3 819 12 828 9 9 113 12 408 12 295 0 399 3 408 12 9 9 12 113 12 408 0 295 3 399 12 408 9 9 113 12 408 12 295 0 399 3 408 12 19 19 17 5851 -1 5867 -10 7 -140 12 -418 13 l-404 3 -3 824 c-1 585 -5 828 -13 837 -9 11 -94 14 -418 16 l-406 3 -3 404 c-1 276 -6 408 -13 418 -9 10 -95 13 -418 15 l-406 3 -3 406 c-2 324 -5 409 -16 418 -9 8 -252 12 -837 13 l-824 3 -3 404 c-1 278 -6 408 -13 418 -10 11 -435 13 -2510 13 -2257 0 -2499 -2 -2513 -16z m1664 -834 c13 -8 15 -112 16 -827 1 -463 -3 -826 -8 -835 -8 -17 -38 -18 -408 -18 -345 0 -401 -2 -414 -15 -13 -14 -15 -70 -16 -412 0 -219 -4 -401 -8 -405 -5 -5 -384 -7 -843 -6 l-834 3 0 833 c0 729 2 834 15 842 9 6 336 10 836 10 740 0 822 2 828 16 3 9 6 195 6 414 0 309 3 399 13 403 23 10 802 7 817 -3z m2520 -9 c6 -13 10 -163 10 -420 l0 -401 829 0 c651 0 831 -3 839 -12 6 -9 12 -306 17 -833 7 -718 6 -822 -7 -833 -12 -9 -201 -12 -849 -10 l-834 3 -5 415 c-3 228 -7 416 -8 418 -1 1 -182 2 -401 2 -220 0 -406 3 -415 6 -14 6 -16 88 -16 835 0 778 1 829 18 838 11 7 163 11 414 11 383 0 398 -1 408 -19z m-5896 -2511 l26 -10 0 -399 c0 -321 3 -401 13 -410 10 -7 140 -12 418 -13 l404 -3 3 -1255 c2 -1179 1 -1256 -15 -1268 -13 -9 -108 -12 -412 -12 -312 1 -396 -2 -402 -12 -5 -7 -9 -191 -9 -408 0 -295 -3 -399 -12 -408 -9 -9 -207 -12 -829 -12 -730 0 -819 2 -833 16 -14 14 -16 141 -16 1249 0 678 3 1240 6 1249 5 14 50 16 404 16 219 0 405 3 414 6 14 6 16 88 16 828 0 451 4 826 8 832 4 6 14 14 22 17 27 10 767 8 794 -3z m9250 -6 c14 -14 16 -103 16 -834 0 -800 0 -820 19 -830 13 -6 161 -10 414 -10 351 0 396 -2 401 -16 11 -29 7 -2474 -4 -2495 -10 -19 -30 -19 -820 -19 -499 0 -818 4 -834 10 l-26 9 -2 408 -3 408 -405 5 c-223 3 -411 9 -417 13 -10 6 -13 268 -13 1255 0 686 4 1253 8 1259 6 10 105 13 418 15 l409 3 5 409 c5 397 6 409 25 417 11 4 194 8 407 8 339 1 389 -1 402 -15z m-3347 -836 c4 -7 10 -195 13 -418 l5 -405 405 -3 c367 -2 406 -4 418 -19 9 -13 12 -280 12 -1253 0 -1182 -1 -1238 -18 -1253 -16 -15 -64 -17 -418 -19 l-399 -3 -3 -400 c-2 -362 -4 -401 -19 -412 -22 -17 -3313 -19 -3344 -3 -18 10 -19 25 -19 400 0 213 -3 395 -6 404 -5 14 -50 16 -403 16 -302 0 -401 3 -414 13 -16 11 -17 96 -15 1267 l3 1255 415 5 415 5 3 405 c1 223 4 411 7 418 3 9 348 12 1679 12 1329 0 1676 -3 1683 -12z m-3363 -5063 c4 -14 6 -388 6 -832 -1 -646 2 -808 12 -815 7 -4 191 -8 409 -8 320 0 399 3 408 13 8 10 12 249 13 838 l3 824 831 3 832 2 6 -22 c3 -13 6 -388 6 -834 0 -731 2 -812 16 -818 9 -3 192 -6 409 -6 317 0 395 3 404 13 8 10 12 249 13 838 l3 824 829 3 c657 2 831 0 838 -10 4 -7 8 -194 8 -414 0 -357 2 -403 16 -408 9 -3 195 -6 414 -6 354 0 399 -2 404 -16 3 -9 6 -381 6 -828 0 -618 -3 -815 -12 -824 -9 -9 -112 -12 -404 -12 -216 0 -399 -3 -408 -6 -14 -5 -16 -51 -16 -408 0 -299 -3 -405 -12 -414 -9 -9 -768 -12 -3354 -12 -2825 0 -3343 2 -3353 14 -8 10 -11 127 -11 410 1 218 -2 401 -5 406 -4 6 -158 10 -409 10 -299 0 -405 3 -414 12 -18 18 -17 1627 1 1651 11 15 50 17 417 19 l405 3 5 405 c3 223 9 411 13 418 6 9 185 12 837 12 l828 0 6 -25z"/> </g> </svg> 